<svg width="64" height="65" viewBox="0 0 64 65" fill="none" xmlns="http://www.w3.org/2000/svg">
<g clip-path="url(#clip0_246_3823)">
<path d="M31.7755 62.8176C14.2544 62.8176 0 49.3069 0 32.7C0 16.093 14.2544 2.58234 31.7755 2.58234C49.2967 2.58234 63.551 16.093 63.551 32.7C63.551 49.3069 49.2967 62.8176 31.7755 62.8176ZM31.7755 3.56784C14.8234 3.56784 1.03975 16.639 1.03975 32.7C1.03975 48.761 14.8304 61.8321 31.7755 61.8321C48.7206 61.8321 62.5112 48.761 62.5112 32.7C62.5112 16.639 48.7206 3.56784 31.7755 3.56784Z" fill="#BC00CC"/>
<path d="M24.3424 42.2351C25.0239 42.2351 25.5789 41.7091 25.5789 41.0632V32.2736C25.5789 31.6277 25.0239 31.1017 24.3424 31.1017C23.661 31.1017 23.106 31.6277 23.106 32.2736V41.0632C23.106 41.7091 23.661 42.2351 24.3424 42.2351Z" fill="#FFBACA"/>
<path d="M18.1602 35.7896V38.7195C18.1602 39.6916 18.9891 40.4774 20.0148 40.4774H21.8695V34.0317H20.0148C18.9891 34.0317 18.1602 34.8175 18.1602 35.7896Z" fill="#FFBACA"/>
<path d="M43.5148 34.0317H41.6602V40.4774H43.5148C44.5405 40.4774 45.3695 39.6916 45.3695 38.7195V35.7896C45.3695 34.8175 44.5336 34.0317 43.5148 34.0317Z" fill="#FFBACA"/>
<path d="M39.1872 31.1017C38.5057 31.1017 37.9507 31.6277 37.9507 32.2736V41.0632C37.9507 41.7091 38.5057 42.2351 39.1872 42.2351C39.8686 42.2351 40.4236 41.7091 40.4236 41.0632V32.2736C40.4236 31.6277 39.8686 31.1017 39.1872 31.1017Z" fill="#FFBACA"/>
<path d="M19.3967 29.344V32.8598C19.3967 32.8798 19.4037 32.8997 19.4037 32.9198C17.9917 33.1927 16.9238 34.3713 16.9238 35.7897V38.7195C16.9238 40.3376 18.3078 41.6494 20.0149 41.6494H21.8696C21.8978 41.6494 21.9188 41.6427 21.9469 41.6427C22.2209 42.6548 23.1904 43.4073 24.3426 43.4073C25.7055 43.4073 26.8154 42.3552 26.8154 41.0634V32.2738C26.8154 30.9821 25.7055 29.9299 24.3426 29.9299C22.9796 29.9299 21.8696 30.9821 21.8696 32.2738V32.8598H20.6332V29.344C20.6332 23.5242 25.6282 18.7965 31.7613 18.7965V17.6245C24.9467 17.6178 19.3967 22.8783 19.3967 29.344ZM23.106 32.2738C23.106 31.6279 23.6611 31.1019 24.3426 31.1019C25.024 31.1019 25.579 31.6279 25.579 32.2738V41.0634C25.579 41.7093 25.024 42.2353 24.3426 42.2353C23.6611 42.2353 23.106 41.7093 23.106 41.0634V32.2738ZM21.8696 34.0318V40.4774H20.0149C18.9892 40.4774 18.1603 39.6917 18.1603 38.7195V35.7897C18.1603 34.8175 18.9892 34.0318 20.0149 34.0318H21.8696Z" fill="#BC00CC"/>
<path d="M44.1261 32.913C44.1261 32.8931 44.1331 32.873 44.1331 32.8531V29.3372C44.1331 22.8716 38.5831 17.6178 31.7686 17.6178V18.7898C37.9087 18.7898 42.8966 23.5242 42.8966 29.3372V32.8531H41.6602V32.2671C41.6602 30.9754 40.5502 29.9232 39.1873 29.9232C37.8244 29.9232 36.7143 30.9754 36.7143 32.2671V41.0568C36.7143 42.3485 37.8244 43.4006 39.1873 43.4006C40.3395 43.4006 41.309 42.6482 41.583 41.6361C41.611 41.6361 41.6321 41.6426 41.6602 41.6426H43.5149C45.222 41.6426 46.606 40.3309 46.606 38.7129V35.783C46.606 34.3713 45.5382 33.1861 44.1261 32.913ZM40.4237 41.0634C40.4237 41.7093 39.8688 42.2353 39.1873 42.2353C38.5059 42.2353 37.9509 41.7093 37.9509 41.0634V32.2738C37.9509 31.6279 38.5059 31.1018 39.1873 31.1018C39.8688 31.1018 40.4237 31.6279 40.4237 32.2738V41.0634ZM45.3696 38.7194C45.3696 39.6917 44.5406 40.4774 43.5149 40.4774H41.6602V34.0317H43.5149C44.5406 34.0317 45.3696 34.8174 45.3696 35.7897V38.7194Z" fill="#BC00CC"/>
<path d="M39.1872 48.4282H35.499C34.6769 48.4282 34.0166 47.7956 34.0166 47.0232C34.0166 46.2508 34.684 45.6182 35.499 45.6182H39.1872C40.0092 45.6182 40.6696 46.2508 40.6696 47.0232C40.6696 47.7956 40.0021 48.4282 39.1872 48.4282Z" fill="#BC00CC"/>
<path d="M39.8829 47.4891C39.6089 47.4891 39.3911 47.276 39.3911 47.023C39.3911 46.7699 39.616 46.5569 39.8829 46.5569C41.4706 46.5569 42.7422 46.0574 43.6625 45.0719C46.0722 42.4817 45.4329 37.3744 45.4258 37.3212C45.3907 37.0615 45.5874 36.8284 45.8545 36.7951C46.1214 36.7551 46.3743 36.9416 46.4095 37.2013C46.4375 37.4277 47.112 42.7814 44.4072 45.6912C43.2972 46.8831 41.7728 47.4891 39.8829 47.4891Z" fill="#BC00CC"/>
</g>
<defs>
<clipPath id="clip0_246_3823">
<rect width="64" height="60.2353" fill="white" transform="translate(0 2.58234)"/>
</clipPath>
</defs>
</svg>
