<svg width="64" height="65" viewBox="0 0 64 65" fill="none" xmlns="http://www.w3.org/2000/svg">
<g clip-path="url(#clip0_246_3791)">
<path d="M31.8615 64.7C14.2929 64.7 0 50.3449 0 32.7C0 15.0551 14.2929 0.700012 31.8615 0.700012C49.43 0.700012 63.7229 15.0551 63.7229 32.7C63.7229 50.3449 49.43 64.7 31.8615 64.7ZM31.8615 1.74711C14.8705 1.74711 1.04256 15.6352 1.04256 32.7C1.04256 49.7648 14.8705 63.6529 31.8615 63.6529C48.8594 63.6529 62.6804 49.7648 62.6804 32.7C62.6804 15.6352 48.8524 1.74711 31.8615 1.74711Z" fill="#BC00CC"/>
<path d="M37.7579 24.288C38.1312 23.9908 38.4834 23.6654 38.8145 23.2975C40.2586 21.7056 38.1241 19.7105 36.511 20.984C35.4966 21.7834 32.2281 21.3094 31.0305 21.3236C29.2835 21.3519 27.5365 21.3731 25.7895 21.4014C23.6974 21.4297 23.6903 24.6983 25.7895 24.67C27.3111 24.6488 28.8256 24.6276 30.3472 24.6063C30.3472 24.6629 30.3402 24.7266 30.3402 24.7832C28.72 24.7478 27.128 24.9671 25.5289 25.2431C23.7396 25.5614 24.1341 28.6391 25.9586 28.4551C26.8814 28.3631 27.8183 28.2146 28.7411 28.165C28.889 28.158 29.037 28.1579 29.1849 28.1509C29.8189 28.165 30.3402 28.3348 30.9319 28.5117C30.8896 28.5754 30.8403 28.6391 30.7981 28.7098C29.7132 29.3253 28.5509 29.4597 27.0857 29.7427C25.7543 30.0045 24.7822 30.7898 25.0569 32.2543C25.3951 34.0443 27.2196 34.8579 28.2692 36.1526C29.192 37.2917 29.6569 38.4379 30.7135 39.2232C30.7417 39.2727 30.7699 39.3222 30.791 39.3717C31.0376 39.9307 31.0235 40.532 31.3898 41.0273C32.0942 41.9824 33.7637 42.2088 34.7852 42.5555C36.4406 43.1215 37.3493 40.9636 36.3701 39.8245C35.9122 39.2939 35.4614 38.7704 35.0035 38.2398C34.5879 37.7587 34.0878 37.6384 33.6299 37.7445C33.5735 37.4898 33.4679 37.2493 33.3058 37.0512C32.8902 36.5347 32.4676 36.0182 32.052 35.5017C31.8618 35.2683 31.6363 35.1339 31.3968 35.056C31.2419 34.766 31.0939 34.4971 30.9601 34.299C31.1644 33.6693 31.0235 32.9194 30.5304 32.4737C30.8333 32.3746 31.1362 32.2614 31.432 32.1341C32.2633 31.7662 33.01 31.2851 33.6792 30.6979C33.7285 30.6625 33.7849 30.6342 33.8342 30.5917C33.8764 30.5564 33.9116 30.5281 33.9539 30.4927C34.0314 30.429 34.0948 30.3441 34.1582 30.2592C34.3132 30.1036 34.4682 29.9479 34.609 29.7781C34.8204 29.5376 34.9401 29.2829 35.0035 29.0282C36.0461 28.3136 37.3141 27.7688 38.2721 27.2028C39.7162 26.3538 39.0258 24.6063 37.7579 24.288Z" fill="#FFBACA"/>
<path d="M38.9623 21.5071L37.4055 23.856H34.5667C34.8485 24.2805 35.0668 24.7687 35.1936 25.3135H38.9623L37.4055 27.6623H35.2359C34.7146 30.6126 31.9603 32.1549 29.2623 32.445L36.6095 41.6637H32.8338L25.6415 32.6219V30.556H27.6492C30.9811 30.556 32.0237 28.8297 32.1434 27.6553H24.761L26.3178 25.3064H31.7701C30.9389 23.9692 29.1919 23.8489 27.3181 23.8489H24.768L26.3248 21.5001H38.9623V21.5071ZM38.9623 20.1629H26.3178C25.8669 20.1629 25.4513 20.3893 25.2048 20.7643L23.648 23.1131C23.3733 23.5235 23.3521 24.0541 23.5846 24.4928C23.817 24.9314 24.2679 25.2003 24.761 25.2003H24.7821L23.648 26.9195C23.3733 27.3298 23.3521 27.8604 23.5846 28.2991C23.817 28.7377 24.2679 29.0066 24.761 29.0066H29.3046C28.8678 29.141 28.3184 29.2259 27.6492 29.2259H25.6415C25.2893 29.2259 24.9441 29.3674 24.6976 29.6221C24.444 29.8768 24.3031 30.2164 24.3031 30.5701V32.636C24.3031 32.9402 24.4088 33.2374 24.599 33.4709L31.7912 42.4985C32.0448 42.8169 32.4322 43.0008 32.8338 43.0008H36.6095C37.1238 43.0008 37.5957 42.7037 37.8141 42.2367C38.0395 41.7698 37.9761 41.2179 37.6521 40.8147L31.6433 33.2728C32.4534 32.9898 33.2001 32.6007 33.8482 32.1337C34.9893 31.3059 35.8065 30.2376 36.2573 28.9995H37.4055C37.8564 28.9995 38.272 28.7731 38.5185 28.3981L40.0753 26.0492C40.3501 25.6389 40.3712 25.1083 40.1387 24.6696C39.9063 24.231 39.4554 23.9621 38.9623 23.9621H38.9412L40.0613 22.2712C40.2092 22.0519 40.3008 21.7901 40.3008 21.5001C40.3008 20.7643 39.702 20.1629 38.9623 20.1629Z" fill="#BC00CC"/>
<path d="M32.4249 52.4178C32.2559 52.4178 32.0938 52.3471 31.9741 52.2268L14.6098 34.7871C14.4267 34.6031 14.3703 34.3272 14.469 34.0866C14.5676 33.8461 14.8 33.6904 15.0607 33.6904H21.0554V17.9558C21.0554 17.602 21.3442 17.3119 21.6964 17.3119C22.0486 17.3119 22.3375 17.602 22.3375 17.9558V34.3343C22.3375 34.688 22.0486 34.9781 21.6964 34.9781H16.6034L32.4038 50.8472L46.7883 34.9781H42.0897C41.7375 34.9781 41.4487 34.688 41.4487 34.3343V17.9841C41.4487 17.6303 41.7375 17.3402 42.0897 17.3402C42.442 17.3402 42.7308 17.6303 42.7308 17.9841V33.6904H48.2394C48.493 33.6904 48.7185 33.839 48.8241 34.0725C48.9298 34.306 48.8805 34.5748 48.7114 34.7658L32.8969 52.2127C32.7771 52.34 32.6151 52.4178 32.439 52.4249C32.432 52.4178 32.432 52.4178 32.4249 52.4178Z" fill="#BC00CC"/>
</g>
<defs>
<clipPath id="clip0_246_3791">
<rect width="64" height="64" fill="white" transform="translate(0 0.700012)"/>
</clipPath>
</defs>
</svg>
