<svg width="64" height="65" viewBox="0 0 64 65" fill="none" xmlns="http://www.w3.org/2000/svg">
<g clip-path="url(#clip0_246_3777)">
<path d="M32 64.7C14.3551 64.7 0 50.3449 0 32.7C0 15.0551 14.3551 0.700012 32 0.700012C49.6449 0.700012 64 15.0551 64 32.7C64 50.3449 49.6449 64.7 32 64.7ZM32 1.74003C14.9352 1.74003 1.0471 15.6281 1.0471 32.6929C1.0471 49.7648 14.9352 63.6458 32 63.6458C49.0719 63.6458 62.9529 49.7577 62.9529 32.6929C62.9529 15.6281 49.0648 1.74003 32 1.74003Z" fill="#BC00CC"/>
<path d="M32.0002 47.9324C40.1862 47.9324 46.8222 44.7205 46.8222 40.7584C46.8222 36.7963 40.1862 33.5844 32.0002 33.5844C23.8142 33.5844 17.1782 36.7963 17.1782 40.7584C17.1782 44.7205 23.8142 47.9324 32.0002 47.9324Z" fill="#FFBACA"/>
<path d="M31.9998 48.9441C23.1207 48.9441 16.166 45.35 16.166 40.7584C16.166 36.1668 23.1207 32.5727 31.9998 32.5727C40.8788 32.5727 47.8335 36.1668 47.8335 40.7584C47.8335 45.35 40.8788 48.9441 31.9998 48.9441ZM31.9998 34.5961C23.7433 34.5961 18.1894 37.7798 18.1894 40.7584C18.1894 43.737 23.7362 46.9207 31.9998 46.9207C40.2633 46.9207 45.81 43.737 45.81 40.7584C45.81 37.7798 40.2562 34.5961 31.9998 34.5961Z" fill="#BC00CC"/>
<path d="M32.2903 30.6341C35.9281 30.6341 38.8771 27.6851 38.8771 24.0473C38.8771 20.4095 35.9281 17.4605 32.2903 17.4605C28.6526 17.4605 25.7036 20.4095 25.7036 24.0473C25.7036 27.6851 28.6526 30.6341 32.2903 30.6341Z" fill="#FFBACA"/>
<path d="M32.2899 31.6388C28.1015 31.6388 24.6914 28.2287 24.6914 24.0403C24.6914 19.8519 28.1015 16.4418 32.2899 16.4418C36.4783 16.4418 39.8884 19.8519 39.8884 24.0403C39.8884 28.2287 36.4783 31.6388 32.2899 31.6388ZM32.2899 18.4723C29.2194 18.4723 26.7149 20.9698 26.7149 24.0474C26.7149 27.125 29.2123 29.6225 32.2899 29.6225C35.3675 29.6225 37.865 27.125 37.865 24.0474C37.865 20.9698 35.3675 18.4723 32.2899 18.4723Z" fill="#BC00CC"/>
</g>
<defs>
<clipPath id="clip0_246_3777">
<rect width="64" height="64" fill="white" transform="translate(0 0.700012)"/>
</clipPath>
</defs>
</svg>
