<svg width="64" height="65" viewBox="0 0 64 65" fill="none" xmlns="http://www.w3.org/2000/svg">
<g clip-path="url(#clip0_246_3742)">
<path d="M28.2289 43.376C27.0545 43.376 26.0923 44.3311 26.0923 45.5126C26.0923 46.687 27.0474 47.6492 28.2289 47.6492C29.4034 47.6492 30.3656 46.6941 30.3656 45.5126C30.3656 44.3382 29.4034 43.376 28.2289 43.376Z" fill="#FFBACA"/>
<path d="M31.434 19.8802C33.2028 19.8802 34.639 21.3164 34.639 23.0852C34.639 24.8539 33.2028 26.2901 31.434 26.2901C31.059 26.2901 30.6982 26.2194 30.3657 26.1062V29.5729L31.434 30.6412L35.212 26.8632C36.2238 25.8515 36.7756 24.5143 36.7756 23.0852C36.7756 21.656 36.2167 20.3189 35.212 19.3071C34.2074 18.2954 32.8632 17.7436 31.434 17.7436C31.0732 17.7436 30.7124 17.779 30.3657 17.8497V20.0642C30.6982 19.9439 31.059 19.8802 31.434 19.8802Z" fill="#FFBACA"/>
<path d="M27.6558 26.856L30.3655 29.5657V26.099C29.1203 25.6603 28.2288 24.4718 28.2288 23.0851C28.2288 21.6913 29.1203 20.5098 30.3655 20.0641V17.8496C29.3467 18.0548 28.4128 18.5571 27.6558 19.307C25.5757 21.3871 25.5757 24.776 27.6558 26.856Z" fill="#FFBACA"/>
<path d="M24.0408 22.0168H20.7509C20.1637 22.0168 19.6826 22.4979 19.6826 23.0851V42.3148C19.6826 42.902 20.1637 43.3831 20.7509 43.3831H24.536C25.2789 42.1096 26.6514 41.2465 28.2291 41.2465C29.0074 41.2465 29.7361 41.4587 30.3658 41.8266V32.5867L26.1491 28.3701C24.4157 26.6367 23.7224 24.2666 24.0408 22.0168Z" fill="#FFBACA"/>
<path d="M31.922 43.376H39.4851C39.8813 42.6898 40.4685 42.1167 41.176 41.7417C41.0911 41.5932 41.0416 41.4234 41.0416 41.2394V23.0851C41.0416 22.4979 40.5605 22.0168 39.9733 22.0168H38.8201C38.8696 22.3705 38.905 22.7243 38.905 23.0851C38.905 25.0802 38.1267 26.9622 36.7188 28.3701L32.1838 32.9051C31.9786 33.1103 31.7027 33.2164 31.4267 33.2164C31.1508 33.2164 30.882 33.1103 30.6697 32.9051L30.3584 32.5938V41.8266C31.0093 42.1945 31.547 42.7322 31.922 43.376Z" fill="#FFBACA"/>
<path d="M43.1782 43.376C42.0037 43.376 41.0415 44.3311 41.0415 45.5126C41.0415 46.687 41.9967 47.6492 43.1782 47.6492C44.3526 47.6492 45.3148 46.6941 45.3148 45.5126C45.3148 44.3382 44.3597 43.376 43.1782 43.376Z" fill="#FFBACA"/>
<path d="M45.3153 30.5563H43.1787V41.2394C44.7564 41.2394 46.136 42.1026 46.8718 43.3761H48.5203C49.1075 43.3761 49.5886 42.895 49.5886 42.3078V34.8295C49.5886 32.4736 47.6713 30.5563 45.3153 30.5563Z" fill="#FFBACA"/>
<path d="M28.2292 47.6494C27.0547 47.6494 26.0926 46.6942 26.0926 45.5127C26.0926 44.3383 27.0477 43.3761 28.2292 43.3761C29.4036 43.3761 30.3658 44.3312 30.3658 45.5127V41.8196C29.7361 41.4517 29.0074 41.2395 28.2292 41.2395C26.6515 41.2395 25.2718 42.1026 24.5361 43.3761H20.751C20.1637 43.3761 19.6826 42.895 19.6826 42.3078V23.0851C19.6826 22.4979 20.1637 22.0168 20.751 22.0168H24.0408C23.7154 24.2667 24.4158 26.6438 26.1421 28.3701L30.3587 32.5868V29.5658L27.649 26.8561C25.569 24.7761 25.569 21.3871 27.649 19.3C28.399 18.5501 29.34 18.0478 30.3587 17.8426V15.6847C28.7669 15.9111 27.2953 16.6328 26.1421 17.7931C25.5195 18.4157 25.0384 19.1232 24.6846 19.8731H20.751C18.9822 19.8731 17.546 21.3093 17.546 23.0781V24.1464H12.2044C11.6172 24.1464 11.1361 24.6275 11.1361 25.2147C11.1361 25.8019 11.6172 26.283 12.2044 26.283H17.546V28.4196H14.3411C13.7538 28.4196 13.2727 28.9007 13.2727 29.488C13.2727 30.0752 13.7538 30.5563 14.3411 30.5563H17.546V32.6929H10.0678C9.48061 32.6929 8.99951 33.174 8.99951 33.7612C8.99951 34.3485 9.48061 34.8296 10.0678 34.8296H17.546V42.3078C17.546 44.0765 18.9822 45.5127 20.751 45.5127H23.9559C23.9559 47.8687 25.8732 49.786 28.2292 49.786C29.0074 49.786 29.7361 49.5738 30.3658 49.2059V45.5127C30.3658 46.6942 29.4036 47.6494 28.2292 47.6494Z" fill="#AE00EB"/>
<path d="M45.3149 28.4267H43.1782V23.0851C43.1782 21.3163 41.742 19.8801 39.9733 19.8801H38.1762C37.8154 19.116 37.3272 18.4085 36.7117 17.8001C35.2967 16.3851 33.4219 15.6069 31.4267 15.6069C31.0659 15.6069 30.7122 15.6422 30.3584 15.6918V17.8496C30.7051 17.7789 31.0659 17.7435 31.4267 17.7435C32.8559 17.7435 34.193 18.3024 35.2048 19.3071C36.2165 20.3188 36.7683 21.6559 36.7683 23.0851C36.7683 24.5142 36.2094 25.8514 35.2048 26.8631L31.4267 30.6411L30.3584 29.5728V32.5938L30.6697 32.9051C30.8749 33.1103 31.1508 33.2164 31.4267 33.2164C31.7027 33.2164 31.9715 33.1103 32.1838 32.9051L36.7188 28.3701C38.1338 26.9551 38.905 25.0802 38.905 23.0851C38.905 22.7243 38.8696 22.3705 38.8201 22.0168H39.9733C40.5605 22.0168 41.0416 22.4979 41.0416 23.0851V41.2465C41.0416 41.4304 41.0911 41.6002 41.176 41.7488C40.4685 42.1238 39.8884 42.6968 39.4851 43.3831H31.922C31.547 42.7393 31.0093 42.2016 30.3655 41.8266V45.5198V49.2129C31.639 48.47 32.5021 47.0975 32.5021 45.5198H38.912C38.912 47.8757 40.8293 49.793 43.1853 49.793C45.5413 49.793 47.4586 47.8757 47.4586 45.5198H48.5269C50.2956 45.5198 51.7318 44.0835 51.7318 42.3148V34.8295C51.7248 31.2991 48.8523 28.4267 45.3149 28.4267ZM43.1782 47.6493C42.0038 47.6493 41.0416 46.6942 41.0416 45.5127C41.0416 44.3382 41.9967 43.376 43.1782 43.376C44.3527 43.376 45.3149 44.3312 45.3149 45.5127C45.3149 46.6942 44.3597 47.6493 43.1782 47.6493ZM49.5881 42.3077C49.5881 42.8949 49.107 43.376 48.5198 43.376H46.8714C46.1285 42.1025 44.7559 41.2394 43.1782 41.2394V30.5562H45.3149C47.6708 30.5562 49.5881 32.4735 49.5881 34.8295V42.3077Z" fill="#BC00CC"/>
<path d="M34.639 23.0851C34.639 21.3164 33.2028 19.8802 31.434 19.8802C31.059 19.8802 30.6982 19.9509 30.3657 20.0641V23.0851C30.3657 22.4979 30.8468 22.0168 31.434 22.0168C32.0212 22.0168 32.5023 22.4979 32.5023 23.0851C32.5023 23.6723 32.0212 24.1534 31.434 24.1534C30.8468 24.1534 30.3657 23.6723 30.3657 23.0851V26.0991C30.6982 26.2193 31.059 26.283 31.434 26.283C33.1957 26.2901 34.639 24.8468 34.639 23.0851Z" fill="#BC00CC"/>
<path d="M30.3656 20.0641C29.1205 20.5028 28.229 21.6914 28.229 23.0851C28.229 24.4789 29.1205 25.6604 30.3656 26.0991V23.0851V20.0641Z" fill="#AE00EB"/>
<path d="M32 64.7C14.3551 64.7 0 50.3449 0 32.7C0 15.0551 14.3551 0.700012 32 0.700012C49.6449 0.700012 64 15.0551 64 32.7C64 50.3449 49.6449 64.7 32 64.7ZM32 1.74003C14.9281 1.74003 1.0471 15.6281 1.0471 32.6929C1.0471 49.7648 14.9352 63.6458 32 63.6458C49.0648 63.6458 62.9529 49.7577 62.9529 32.6929C62.9529 15.6281 49.0648 1.74003 32 1.74003Z" fill="#BC00CC"/>
</g>
<defs>
<clipPath id="clip0_246_3742">
<rect width="64" height="64" fill="white" transform="translate(0 0.700012)"/>
</clipPath>
</defs>
</svg>
