<svg width="64" height="65" viewBox="0 0 64 65" fill="none" xmlns="http://www.w3.org/2000/svg">
<g clip-path="url(#clip0_246_3762)">
<path d="M32 64.7C14.3551 64.7 0 50.3449 0 32.7C0 15.0551 14.3551 0.700012 32 0.700012C49.6449 0.700012 64 15.0551 64 32.7C64 50.3449 49.6449 64.7 32 64.7ZM32 1.74003C14.9352 1.74003 1.04709 15.6281 1.04709 32.6929C1.04709 49.7648 14.9352 63.6458 32 63.6458C49.0718 63.6458 62.9529 49.7577 62.9529 32.6929C62.9529 15.6281 49.0648 1.74003 32 1.74003Z" fill="#BC00CC"/>
<path d="M35.9267 42.5556C35.7003 42.5556 35.4669 42.4707 35.29 42.308C34.9079 41.9543 34.8796 41.36 35.2334 40.9779L47.9825 27.1605C48.3362 26.7785 48.9305 26.7502 49.3125 27.1039C49.6946 27.4577 49.7229 28.052 49.3691 28.434L36.6201 42.2514C36.4361 42.4495 36.1814 42.5556 35.9267 42.5556Z" fill="#BC00CC"/>
<path d="M38.5657 31.6601C40.2146 31.6601 41.5513 30.3234 41.5513 28.6745C41.5513 27.0256 40.2146 25.6889 38.5657 25.6889C36.9167 25.6889 35.5801 27.0256 35.5801 28.6745C35.5801 30.3234 36.9167 31.6601 38.5657 31.6601Z" fill="#FFBACA"/>
<path d="M38.5653 32.6012C36.4004 32.6012 34.6387 30.8395 34.6387 28.6746C34.6387 26.5096 36.4004 24.748 38.5653 24.748C40.7302 24.748 42.4919 26.5096 42.4919 28.6746C42.4919 30.8395 40.7302 32.6012 38.5653 32.6012ZM38.5653 26.637C37.4404 26.637 36.5277 27.5497 36.5277 28.6746C36.5277 29.7995 37.4404 30.7122 38.5653 30.7122C39.6902 30.7122 40.6029 29.7995 40.6029 28.6746C40.6029 27.5497 39.6831 26.637 38.5653 26.637Z" fill="#BC00CC"/>
<path d="M47.1687 41.9896C48.8176 41.9896 50.1543 40.6529 50.1543 39.004C50.1543 37.3551 48.8176 36.0184 47.1687 36.0184C45.5198 36.0184 44.1831 37.3551 44.1831 39.004C44.1831 40.6529 45.5198 41.9896 47.1687 41.9896Z" fill="#FFBACA"/>
<path d="M47.1688 42.9306C45.0038 42.9306 43.2422 41.169 43.2422 39.004C43.2422 36.8391 45.0038 35.0774 47.1688 35.0774C49.3337 35.0774 51.0954 36.8391 51.0954 39.004C51.0954 41.169 49.3337 42.9306 47.1688 42.9306ZM47.1688 36.9665C46.0438 36.9665 45.1312 37.8791 45.1312 39.004C45.1312 40.129 46.0438 41.0416 47.1688 41.0416C48.2937 41.0416 49.2063 40.129 49.2063 39.004C49.2063 37.8791 48.2937 36.9665 47.1688 36.9665Z" fill="#BC00CC"/>
<path d="M25.0029 44.4022C29.4964 44.4022 33.1391 39.7047 33.1391 33.91C33.1391 28.1154 29.4964 23.4179 25.0029 23.4179C20.5094 23.4179 16.8667 28.1154 16.8667 33.91C16.8667 39.7047 20.5094 44.4022 25.0029 44.4022Z" fill="#FFBACA"/>
<path d="M25.003 45.35C19.9939 45.35 15.9258 40.2207 15.9258 33.9098C15.9258 27.599 20.001 22.4697 25.003 22.4697C30.0049 22.4697 34.0801 27.599 34.0801 33.9098C34.0801 40.2207 30.012 45.35 25.003 45.35ZM25.003 24.3587C21.041 24.3587 17.8148 28.6461 17.8148 33.9098C17.8148 39.1736 21.041 43.461 25.003 43.461C28.9649 43.461 32.1911 39.1736 32.1911 33.9098C32.1911 28.6461 28.972 24.3587 25.003 24.3587Z" fill="#BC00CC"/>
</g>
<defs>
<clipPath id="clip0_246_3762">
<rect width="64" height="64" fill="white" transform="translate(0 0.700012)"/>
</clipPath>
</defs>
</svg>
