<svg width="64" height="65" viewBox="0 0 64 65" fill="none" xmlns="http://www.w3.org/2000/svg">
<g clip-path="url(#clip0_246_3841)">
<path d="M32 64.7C14.3551 64.7 0 50.3449 0 32.7C0 15.0551 14.3551 0.700012 32 0.700012C49.6449 0.700012 64 15.0551 64 32.7C64 50.3449 49.6449 64.7 32 64.7ZM32 1.74711C14.9352 1.74711 1.0471 15.6352 1.0471 32.7C1.0471 49.7648 14.9352 63.6529 32 63.6529C49.0719 63.6529 62.9529 49.7648 62.9529 32.7C62.9529 15.6352 49.0648 1.74711 32 1.74711Z" fill="#BC00CC"/>
<path d="M42.2797 26.3111C42.7254 25.9574 43.1499 25.5682 43.539 25.1367C45.2583 23.2406 42.7183 20.8705 40.794 22.3916C39.5841 23.3467 35.6788 22.7736 34.2567 22.7948C32.1696 22.8231 30.0825 22.8514 27.9954 22.8868C25.4979 22.9222 25.4908 26.8063 27.9954 26.771C29.8066 26.7427 31.6248 26.7214 33.436 26.6931C33.436 26.7639 33.4289 26.8346 33.4289 26.8983C31.4975 26.8629 29.5943 27.1106 27.6911 27.4502C25.5616 27.8251 26.0215 31.4829 28.2076 31.2636C29.3042 31.1504 30.4292 30.9735 31.5329 30.9169C31.7097 30.9098 31.8866 30.9098 32.0635 30.9027C32.8205 30.924 33.4431 31.115 34.1506 31.3343C34.094 31.4121 34.0374 31.49 33.9879 31.5678C32.6931 32.2965 31.3064 32.4522 29.5519 32.7988C27.9671 33.1101 26.7997 34.044 27.1251 35.7845C27.5213 37.914 29.7075 38.8833 30.9598 40.4185C32.0635 41.7699 32.6153 43.1282 33.8747 44.0692C33.903 44.1258 33.9383 44.1895 33.9666 44.2461C34.2638 44.9111 34.2496 45.6257 34.6812 46.2129C35.5231 47.3449 37.5183 47.6138 38.7351 48.0241C40.7091 48.6962 41.7986 46.1351 40.6241 44.7767C40.0794 44.147 39.5346 43.5244 38.9898 42.8948C38.4946 42.3217 37.9003 42.1802 37.3485 42.3076C37.2777 42.0033 37.1574 41.7203 36.9593 41.4869C36.457 40.8713 35.9618 40.2629 35.4594 39.6474C35.233 39.3714 34.9642 39.2087 34.6812 39.1168C34.4902 38.7772 34.3204 38.4588 34.1647 38.2182C34.4124 37.4754 34.2355 36.5768 33.6553 36.0462C34.0162 35.926 34.377 35.7986 34.7307 35.6429C35.7212 35.2043 36.6127 34.6312 37.4121 33.9379C37.4758 33.8954 37.5395 33.8601 37.5961 33.8105C37.6456 33.7752 37.6881 33.7327 37.7376 33.6973C37.8295 33.6195 37.9074 33.5205 37.9781 33.4143C38.1621 33.2304 38.346 33.0464 38.5158 32.8483C38.7705 32.5653 38.912 32.2611 38.9828 31.9569C40.2209 31.1079 41.742 30.4641 42.8811 29.792C44.6215 28.7661 43.8008 26.6861 42.2797 26.3111Z" fill="#FFBACA"/>
<path d="M43.7231 23.0002L41.8695 25.7948H38.4806C38.8202 26.2972 39.0749 26.8844 39.2305 27.5211H43.7302L41.8765 30.3157H39.2871C38.6645 33.8178 35.3747 35.6573 32.1556 35.9969L40.9214 46.9489H36.4147L27.8257 36.2162V33.7612H30.2241C34.2002 33.7612 35.4454 31.7095 35.5869 30.3087H26.7715L28.6252 27.5141H35.127C34.1365 25.9293 32.0494 25.7878 29.8067 25.7878H26.7644L28.6181 22.9932H43.7231V23.0002ZM43.7231 21.4084H28.6252C28.0875 21.4084 27.5922 21.6772 27.2951 22.123L25.4414 24.9176C25.116 25.4057 25.0877 26.0354 25.3636 26.5589C25.6395 27.0825 26.1843 27.4009 26.7715 27.4009H26.7998L25.4414 29.4384C25.116 29.9266 25.0877 30.5563 25.3636 31.0798C25.6395 31.6034 26.1843 31.9217 26.7715 31.9217H32.198C31.6745 32.0845 31.0236 32.1764 30.2241 32.1764H27.8257C27.4012 32.1764 26.9979 32.3462 26.6937 32.6434C26.3966 32.9405 26.2268 33.3509 26.2268 33.7754V36.2304C26.2268 36.5912 26.347 36.945 26.5734 37.228L35.1624 47.9607C35.4666 48.3427 35.9265 48.562 36.4076 48.562H40.9143C41.5299 48.562 42.0888 48.2083 42.3506 47.6564C42.6194 47.1046 42.5416 46.4466 42.1595 45.9655L34.9855 37.0016C35.9548 36.662 36.8462 36.2092 37.6174 35.6503C38.9758 34.6668 39.9522 33.4004 40.4899 31.9288H41.8624C42.4001 31.9288 42.8953 31.66 43.1925 31.2143L45.0461 28.4197C45.3716 27.9315 45.3999 27.3018 45.1239 26.7783C44.848 26.2618 44.3033 25.9363 43.716 25.9363H43.6877L45.0249 23.9271C45.2088 23.6653 45.3079 23.354 45.3079 23.0144C45.322 22.1229 44.6075 21.4084 43.7231 21.4084Z" fill="#BC00CC"/>
<path d="M25.6752 26.9693H13.8813C13.2799 26.9693 12.7988 26.4811 12.7988 25.8868C12.7988 25.2925 13.287 24.8044 13.8813 24.8044H25.6752C26.2766 24.8044 26.7577 25.2925 26.7577 25.8868C26.7577 26.4811 26.2766 26.9693 25.6752 26.9693Z" fill="#BC00CC"/>
<path d="M26.7712 36.2941H21.0122C20.4108 36.2941 19.9297 35.806 19.9297 35.2117C19.9297 34.6174 20.4179 34.1292 21.0122 34.1292H26.7712C27.3726 34.1292 27.8537 34.6174 27.8537 35.2117C27.8537 35.806 27.3726 36.2941 26.7712 36.2941Z" fill="#BC00CC"/>
<path d="M17.8073 36.4141C17.1422 36.4141 16.6045 35.8764 16.6045 35.2113C16.6045 34.5463 17.1422 34.0086 17.8073 34.0086C18.4723 34.0086 19.01 34.5463 19.01 35.2113C19.01 35.8764 18.4652 36.4141 17.8073 36.4141ZM17.8073 34.2421C17.2766 34.2421 16.838 34.6736 16.838 35.2113C16.838 35.749 17.2696 36.1806 17.8073 36.1806C18.345 36.1806 18.7766 35.749 18.7766 35.2113C18.7766 34.6736 18.3379 34.2421 17.8073 34.2421Z" fill="#BC00CC"/>
<path d="M25.6749 31.3558H7.30122C6.69985 31.3558 6.21875 30.8676 6.21875 30.2733C6.21875 29.679 6.70692 29.1908 7.30122 29.1908H25.6749C26.2762 29.1908 26.7573 29.679 26.7573 30.2733C26.7573 30.8676 26.2762 31.3558 25.6749 31.3558Z" fill="#BC00CC"/>
</g>
<defs>
<clipPath id="clip0_246_3841">
<rect width="64" height="64" fill="white" transform="translate(0 0.700012)"/>
</clipPath>
</defs>
</svg>
