<svg width="64" height="65" viewBox="0 0 64 65" fill="none" xmlns="http://www.w3.org/2000/svg">
<g clip-path="url(#clip0_246_3802)">
<path d="M32 64.7C14.3551 64.7 0 50.3449 0 32.7C0 15.0551 14.3551 0.700012 32 0.700012C49.6449 0.700012 64 15.0551 64 32.7C64 50.3449 49.6449 64.7 32 64.7ZM32 1.74003C14.9281 1.74003 1.04708 15.6281 1.04708 32.6929C1.04708 49.7648 14.9352 63.6458 32 63.6458C49.0648 63.6458 62.9529 49.7577 62.9529 32.6929C62.9529 15.6281 49.0718 1.74003 32 1.74003Z" fill="#BC00CC"/>
<path d="M43.0652 45.4986H21.4229C20.3263 45.4986 19.4419 44.6142 19.4419 43.5176V21.8753C19.4419 20.7787 20.3263 19.8943 21.4229 19.8943H43.0652C44.1618 19.8943 45.0461 20.7787 45.0461 21.8753V43.5176C45.0532 44.6142 44.1618 45.4986 43.0652 45.4986Z" fill="#FFBACA"/>
<path d="M43.065 46.4611H21.4227C19.8025 46.4611 18.4795 45.138 18.4795 43.5179V21.8756C18.4795 20.2554 19.8025 18.9324 21.4227 18.9324H43.065C44.6922 18.9324 46.0081 20.2554 46.0081 21.8756V43.5179C46.0152 45.138 44.6922 46.4611 43.065 46.4611ZM21.4227 20.8568C20.8638 20.8568 20.4039 21.3167 20.4039 21.8756V43.5179C20.4039 44.0768 20.8638 44.5367 21.4227 44.5367H43.065C43.6239 44.5367 44.0838 44.0768 44.0838 43.5179V21.8756C44.0838 21.3167 43.6239 20.8568 43.065 20.8568H21.4227Z" fill="#BC00CC"/>
<path d="M31.7525 44.855H21.4514C20.6944 44.855 20.0859 44.2465 20.0859 43.4895V33.1884H31.7525V44.855Z" fill="#FFBACA"/>
<path d="M33.1671 19.8943H31.2427V45.4986H33.1671V19.8943Z" fill="#BC00CC"/>
<path d="M28.491 38.6429H23.5032C22.9725 38.6429 22.541 38.2114 22.541 37.6807C22.541 37.1501 22.9725 36.7186 23.5032 36.7186H28.491C29.0216 36.7186 29.4532 37.1501 29.4532 37.6807C29.4532 38.2114 29.0287 38.6429 28.491 38.6429Z" fill="#BC00CC"/>
<path d="M28.491 41.1902H23.5032C22.9726 41.1902 22.541 40.7586 22.541 40.228C22.541 39.6974 22.9726 39.2658 23.5032 39.2658H28.491C29.0217 39.2658 29.4532 39.6974 29.4532 40.228C29.4532 40.7586 29.0287 41.1902 28.491 41.1902Z" fill="#BC00CC"/>
<path d="M36.9526 41.459C36.7049 41.459 36.4573 41.3671 36.2734 41.176C35.8984 40.8011 35.8984 40.1926 36.2734 39.8106L39.8038 36.2802C40.1788 35.9052 40.7872 35.9052 41.1692 36.2802C41.5442 36.6552 41.5442 37.2636 41.1692 37.6456L37.6389 41.176C37.4478 41.3671 37.2002 41.459 36.9526 41.459Z" fill="#BC00CC"/>
<path d="M40.483 41.459C40.2353 41.459 39.9877 41.3671 39.8038 41.176L36.2734 37.6456C35.8984 37.2707 35.8984 36.6622 36.2734 36.2802C36.6484 35.9052 37.2568 35.9052 37.6389 36.2802L41.1692 39.8106C41.5442 40.1856 41.5442 40.794 41.1692 41.176C40.9711 41.3671 40.7306 41.459 40.483 41.459Z" fill="#BC00CC"/>
<path d="M44.5583 31.9362H18.9541V33.8606H44.5583V31.9362Z" fill="#BC00CC"/>
<path d="M25.5476 30.323C25.017 30.323 24.5854 29.8915 24.5854 29.3608V24.373C24.5854 23.8424 25.017 23.4108 25.5476 23.4108C26.0783 23.4108 26.5098 23.8424 26.5098 24.373V29.3608C26.5098 29.8915 26.0783 30.323 25.5476 30.323Z" fill="#BC00CC"/>
<path d="M28.0452 27.8256H23.0574C22.5268 27.8256 22.0952 27.394 22.0952 26.8634C22.0952 26.3328 22.5268 25.9012 23.0574 25.9012H28.0452C28.5759 25.9012 29.0074 26.3328 29.0074 26.8634C29.0074 27.394 28.5759 27.8256 28.0452 27.8256Z" fill="#BC00CC"/>
<path d="M40.7659 27.8256H35.7781C35.2475 27.8256 34.8159 27.394 34.8159 26.8634C34.8159 26.3327 35.2475 25.9012 35.7781 25.9012H40.7659C41.2965 25.9012 41.7281 26.3327 41.7281 26.8634C41.7281 27.394 41.2965 27.8256 40.7659 27.8256Z" fill="#BC00CC"/>
</g>
<defs>
<clipPath id="clip0_246_3802">
<rect width="64" height="64" fill="white" transform="translate(0 0.700012)"/>
</clipPath>
</defs>
</svg>
