<svg width="64" height="65" viewBox="0 0 64 65" fill="none" xmlns="http://www.w3.org/2000/svg">
<g clip-path="url(#clip0_246_3856)">
<path d="M32 64.7C14.3551 64.7 0 50.3449 0 32.7C0 15.0551 14.3551 0.700012 32 0.700012C49.6449 0.700012 64 15.0551 64 32.7C64 50.3449 49.6449 64.7 32 64.7ZM32 1.74711C14.9281 1.74711 1.04708 15.6352 1.04708 32.7C1.04708 49.7648 14.9352 63.6529 32 63.6529C49.0648 63.6529 62.9529 49.7648 62.9529 32.7C62.9529 15.6352 49.0718 1.74711 32 1.74711Z" fill="#BC00CC"/>
<path d="M38.5865 50.2883H25.42C23.9696 50.2883 22.7881 49.1068 22.7881 47.6564V17.7435C22.7881 16.2931 23.9696 15.1116 25.42 15.1116H38.5865C40.0368 15.1116 41.2184 16.2931 41.2184 17.7435V47.6564C41.2113 49.1068 40.0298 50.2883 38.5865 50.2883ZM25.42 16.7884C24.8964 16.7884 24.4649 17.22 24.4649 17.7435V47.6564C24.4649 48.1799 24.8964 48.6115 25.42 48.6115H38.5865C39.11 48.6115 39.5416 48.1799 39.5416 47.6564V17.7435C39.5416 17.22 39.11 16.7884 38.5865 16.7884H25.42Z" fill="#BC00CC"/>
<path d="M40.0161 21.5358H23.9419V43.3974H40.0161V21.5358Z" fill="#FFBACA"/>
<path d="M40.016 44.2321H23.9418C23.4819 44.2321 23.1069 43.8572 23.1069 43.3973V21.5357C23.1069 21.0758 23.4819 20.7009 23.9418 20.7009H40.016C40.4759 20.7009 40.8509 21.0758 40.8509 21.5357V43.3973C40.8509 43.8572 40.4759 44.2321 40.016 44.2321ZM24.7766 42.5554H39.1741V22.3705H24.7766V42.5554Z" fill="#BC00CC"/>
<path d="M31.993 47.1614C32.3251 47.1614 32.5944 46.8922 32.5944 46.56C32.5944 46.2279 32.3251 45.9587 31.993 45.9587C31.6608 45.9587 31.3916 46.2279 31.3916 46.56C31.3916 46.8922 31.6608 47.1614 31.993 47.1614Z" fill="#FFBACA"/>
<path d="M31.9927 48.4983C30.9244 48.4983 30.0542 47.6281 30.0542 46.5598C30.0542 45.4915 30.9244 44.6213 31.9927 44.6213C33.061 44.6213 33.9313 45.4915 33.9313 46.5598C33.9384 47.6281 33.0681 48.4983 31.9927 48.4983ZM31.9927 45.8169C31.5824 45.8169 31.2499 46.1495 31.2499 46.5598C31.2499 46.9702 31.5824 47.3027 31.9927 47.3027C32.4031 47.3027 32.7356 46.9702 32.7356 46.5598C32.7356 46.1495 32.4031 45.8169 31.9927 45.8169Z" fill="#BC00CC"/>
</g>
<defs>
<clipPath id="clip0_246_3856">
<rect width="64" height="64" fill="white" transform="translate(0 0.700012)"/>
</clipPath>
</defs>
</svg>
